nColumns=19
nRows=56
DataType=double
version=3
OpenSimVersion=4.1
endheader
time	ground_force_calcn_r_vx	ground_force_calcn_r_vy	ground_force_calcn_r_vz	ground_force_calcn_r_px	ground_force_calcn_r_py	ground_force_calcn_r_pz	ground_force_calcn_r_mx	ground_force_calcn_r_my	ground_force_calcn_r_mz	ground_force_calcn_l_vx	ground_force_calcn_l_vy	ground_force_calcn_l_vz	ground_force_calcn_l_px	ground_force_calcn_l_py	ground_force_calcn_l_pz	ground_force_calcn_l_mx	ground_force_calcn_l_my	ground_force_calcn_l_mz
0	209.536	2225.76	-104.504	0.789784	0	-0.261696	6.28503	66.7615	-3.13458	0	0	0	0	0	0	0	0	0
0.005	236.924	2121.79	-56.1698	0.779927	0	-0.261118	3.51818	31.5074	-0.834089	0	0	0	0	0	0	0	0	0
0.01	268.934	1979.56	-11.874	0.767945	0	-0.261276	-0.355739	-2.61852	0.0157066	0	0	0	0	0	0	0	0	0
0.015	300.066	1796.19	21.0585	0.752544	0	-0.262136	-4.56271	-27.3123	-0.320209	0	0	0	0	0	0	0	0	0
0.02	326.295	1569.13	34.6989	0.729027	0	-0.263674	-7.6917	-36.9889	-0.817952	0	0	0	0	0	0	0	0	0
0.025	347.602	1299.74	23.7422	0.689008	0	-0.2652	-7.85329	-29.3647	-0.536402	0	0	0	0	0	0	0	0	0
0.03	364.661	1002.8	-8.18238	0.621937	0	-0.264352	-2.91769	-8.02352	0.0654681	0	0	0	0	0	0	0	0	0
0.035	374.141	710.107	-44.2662	0.519397	0	-0.25375	8.61096	16.3433	-1.0188	0	0	0	0	0	0	0	0	0
0.04	368.779	458.526	-63.7037	0.383555	0	-0.221751	23.0059	28.6047	-3.97409	0	0	0	0	0	0	0	0	0
0.045	339.317	278.11	-52.7777	0.240422	0	-0.186287	25.0913	20.5653	-3.90273	0	0	0	0	0	0	0	0	0
0.05	279.427	170.862	-15.2201	0.308169	0	-0.206802	9.91604	6.06339	-0.540116	0	0	0	0	0	0	0	0	0
0.055	198.624	103.66	27.41	0.46627	0	-0.323582	-7.63156	-3.98284	-1.05315	0	0	0	0	0	0	0	0	0
0.06	119.649	52.887	48.6315	0.535934	0	-0.497405	-13.119	-5.79886	-5.33226	0	0	0	0	0	0	0	0	0
0.065	59.6965	18.6119	40.5822	0.677461	0	-0.632567	-7.16233	-2.23303	-4.86902	0	0	0	0	0	0	0	0	0
0.07	0	0	0	0	0	0	0	0	0	0	0	0	0	0	0	0	0	0
0.075	0	0	0	0	0	0	0	0	0	0	0	0	0	0	0	0	0	0
0.08	0	0	0	0	0	0	0	0	0	0	0	0	0	0	0	0	0	0
0.085	0	0	0	0	0	0	0	0	0	0	0	0	0	0	0	0	0	0
0.09	0	0	0	0	0	0	0	0	0	0	0	0	0	0	0	0	0	0
0.095	0	0	0	0	0	0	0	0	0	0	0	0	0	0	0	0	0	0
0.1	0	0	0	0	0	0	0	0	0	0	0	0	0	0	0	0	0	0
0.105	0	0	0	0	0	0	0	0	0	0	0	0	0	0	0	0	0	0
0.11	0	0	0	0	0	0	0	0	0	0	0	0	0	0	0	0	0	0
0.115	0	0	0	0	0	0	0	0	0	0	0	0	0	0	0	0	0	0
0.12	0	0	0	0	0	0	0	0	0	0	0	0	0	0	0	0	0	0
0.125	0	0	0	0	0	0	0	0	0	0	0	0	0	0	0	0	0	0
0.13	0	0	0	0	0	0	0	0	0	0	0	0	0	0	0	0	0	0
0.135	0	0	0	0	0	0	0	0	0	0	0	0	0	0	0	0	0	0
0.14	0	0	0	0	0	0	0	0	0	0	0	0	0	0	0	0	0	0
0.145	0	0	0	0	0	0	0	0	0	0	0	0	0	0	0	0	0	0
0.15	0	0	0	0	0	0	0	0	0	0	0	0	0	0	0	0	0	0
0.155	0	0	0	0	0	0	0	0	0	0	0	0	0	0	0	0	0	0
0.16	0	0	0	0	0	0	0	0	0	0	0	0	0	0	0	0	0	0
0.165	0	0	0	0	0	0	0	0	0	0	0	0	0	0	0	0	0	0
0.17	0	0	0	0	0	0	0	0	0	0	0	0	0	0	0	0	0	0
0.175	0	0	0	0	0	0	0	0	0	0	0	0	0	0	0	0	0	0
0.18	0	0	0	0	0	0	0	0	0	0	0	0	0	0	0	0	0	0
0.185	0	0	0	0	0	0	0	0	0	0	0	0	0	0	0	0	0	0
0.19	0	0	0	0	0	0	0	0	0	0	0	0	0	0	0	0	0	0
0.195	0	0	0	0	0	0	0	0	0	-22.9112	38.087	-19.93	1.26237	0	-0.391792	0.240315	-0.399494	0.209045
0.2	0	0	0	0	0	0	0	0	0	-77.1542	180.315	-12.0262	1.1603	0	-0.430885	2.50638	-5.8576	0.390676
0.205	0	0	0	0	0	0	0	0	0	-142.736	415.069	12.2839	1.10758	0	-0.443153	2.79639	-8.13177	-0.240658
0.21	0	0	0	0	0	0	0	0	0	-203.415	731.558	66.9264	1.0972	0	-0.4277	0.800356	-2.87839	-0.263329
0.215	0	0	0	0	0	0	0	0	0	-241.423	1084.84	152.015	1.08702	0	-0.4133	-1.8804	8.44965	1.18401
0.22	0	0	0	0	0	0	0	0	0	-259.235	1431.97	241.341	1.07655	0	-0.399498	-2.4873	13.7394	2.31561
0.225	0	0	0	0	0	0	0	0	0	-286.785	1743.71	296.264	1.06155	0	-0.387377	-0.381995	2.32261	0.394621
0.23	0	0	0	0	0	0	0	0	0	-334.992	1990.66	283.9	1.04364	0	-0.37889	3.03359	-18.0268	-2.57092
0.235	0	0	0	0	0	0	0	0	0	-381.538	2157.83	197.411	1.02717	0	-0.375308	5.22424	-29.5463	-2.70307
0.24	0	0	0	0	0	0	0	0	0	-412.605	2267.55	65.466	1.01126	0	-0.376261	4.31494	-23.7136	-0.684631
0.245	0	0	0	0	0	0	0	0	0	-425.209	2357.19	-59.3483	0.995972	0	-0.379054	0.774083	-4.2912	0.108042
0.25	0	0	0	0	0	0	0	0	0	-418.97	2451.53	-131.952	0.982881	0	-0.380684	-2.50602	14.6635	-0.789252
0.255	0	0	0	0	0	0	0	0	0	-401.127	2555.29	-131.707	0.969123	0	-0.379843	-3.47659	22.1469	-1.14151
0.26	0	0	0	0	0	0	0	0	0	-372.042	2651.67	-68.86	0.951558	0	-0.377832	-2.69306	19.1943	-0.498449
0.265	0	0	0	0	0	0	0	0	0	-324.206	2714	23.7311	0.929014	0	-0.376423	-1.48845	12.4602	0.108951
0.27	0	0	0	0	0	0	0	0	0	-256.395	2730.59	105.958	0.900971	0	-0.376402	-0.51228	5.45575	0.211705
0.275	0	0	0	0	0	0	0	0	0	-177.169	2712.13	151.421	0.869404	0	-0.377452	0.0324734	-0.497109	-0.027754
